Results
version=1
nRows=23
nColumns=23
inDegrees=yes
endheader
time	pelvis_tilt	pelvis_list	pelvis_rotation	pelvis_tx	pelvis_ty	pelvis_tz	hip_flexion_r	hip_adduction_r	hip_rotation_r	knee_angle_beta	knee_angle_r	ankle_angle_r	subtalar_angle_r	mtp_angle_r	hip_flexion_l	hip_adduction_l	hip_rotation_l	knee_angle_l_beta	knee_angle_l	ankle_angle_l	subtalar_angle_l	mtp_angle_l
      4.34000000	     -5.59007961	      6.28801652	     88.95875795	     -0.06376811	      0.85964279	     -0.16533106	     39.93330576	    -13.08590804	      3.00436562	     79.71552128	    -79.71552128	     32.90869525	      0.00000000	      0.00000000	     34.37346040	     -8.03026422	     -6.84298550	     77.71683317	    -77.71683317	     30.69600738	      0.00000000	      0.00000000
      4.34500000	     -5.46061399	      6.66570132	     88.91206335	     -0.06379327	      0.86878191	     -0.16862440	     38.43878485	    -13.11336252	      2.64762992	     78.22683373	    -78.22683373	     31.93890776	      0.00000000	      0.00000000	     32.90903829	     -7.97047239	     -6.85323862	     76.14761350	    -76.14761350	     29.79450264	      0.00000000	      0.00000000
      4.35000000	     -5.28821345	      6.92074744	     88.86705820	     -0.06388103	      0.87795043	     -0.17182111	     37.04272455	    -13.11238810	      2.23954207	     76.64727239	    -76.64727239	     30.80252389	      0.00000000	      0.00000000	     31.59477161	     -7.96779722	     -6.86027106	     74.57489060	    -74.57489060	     28.80457100	      0.00000000	      0.00000000
      4.35500000	     -5.06192159	      6.84045060	     88.80657171	     -0.06393477	      0.88673251	     -0.17497315	     36.01476484	    -13.03223990	      1.81490150	     75.04014774	    -75.04014774	     29.45564895	      0.00000000	      0.00000000	     30.67450592	     -8.04494857	     -6.84179403	     73.00426711	    -73.00426711	     27.56578102	      0.00000000	      0.00000000
      4.36000000	     -4.90381900	      7.30980812	     88.76470022	     -0.06402367	      0.89712876	     -0.17826038	     34.23168620	    -13.07076777	      1.35465285	     73.19405401	    -73.19405401	     28.32156139	      0.00000000	      0.00000000	     28.97561698	     -8.02933815	     -6.94230909	     71.14459856	    -71.14459856	     26.50892125	      0.00000000	      0.00000000
      4.36500000	     -4.68489320	      7.45993241	     88.70554912	     -0.06411897	      0.90713578	     -0.18143406	     32.80058333	    -13.02147698	      0.87678911	     71.30166760	    -71.30166760	     26.90926033	      0.00000000	      0.00000000	     27.66916305	     -8.10897134	     -7.03034839	     69.31846034	    -69.31846034	     25.21671261	      0.00000000	      0.00000000
      4.37000000	     -4.45129512	      7.56959482	     88.63833316	     -0.06418590	      0.91749895	     -0.18463990	     31.35326395	    -12.94704826	      0.37979075	     69.28512798	    -69.28512798	     25.37395611	      0.00000000	      0.00000000	     26.35431661	     -8.21139454	     -7.14914515	     67.37315085	    -67.37315085	     23.79928748	      0.00000000	      0.00000000
      4.37500000	     -4.22568603	      7.56367707	     88.56810950	     -0.06431401	      0.92805540	     -0.18787915	     29.95304415	    -12.85465891	     -0.08732052	     67.09345934	    -67.09345934	     23.70575258	      0.00000000	      0.00000000	     25.15221735	     -8.32244051	     -7.33063057	     65.39388593	    -65.39388593	     22.27494439	      0.00000000	      0.00000000
      4.38000000	     -3.91091863	      7.21877964	     88.46438612	     -0.06435170	      0.93826612	     -0.19098825	     28.98484804	    -12.64456053	     -0.59151879	     64.96339590	    -64.96339590	     21.74305285	      0.00000000	      0.00000000	     24.32568714	     -8.54186042	     -7.43944713	     63.34763556	    -63.34763556	     20.26985646	      0.00000000	      0.00000000
      4.38500000	     -3.66310528	      7.49451615	     88.37892937	     -0.06455244	      0.95026652	     -0.19433253	     27.12637940	    -12.55023556	     -1.14700101	     62.46315360	    -62.46315360	     19.80609191	      0.00000000	      0.00000000	     22.61694464	     -8.62578207	     -7.65076464	     60.97135902	    -60.97135902	     18.63987263	      0.00000000	      0.00000000
      4.39000000	     -3.42934797	      7.79341193	     88.23658051	     -0.06462427	      0.96276020	     -0.19781236	     25.18187335	    -12.40858516	     -1.61919668	     59.80806749	    -59.80806749	     17.74705462	      0.00000000	      0.00000000	     20.79500683	     -8.73646941	     -8.00236447	     58.43397667	    -58.43397667	     16.55501145	      0.00000000	      0.00000000
      4.39500000	     -3.15090570	      7.74498808	     88.08871635	     -0.06486527	      0.97501638	     -0.20128470	     23.58529508	    -12.19261270	     -2.08044082	     57.01624106	    -57.01624106	     15.20404962	      0.00000000	      0.00000000	     19.37425332	     -8.86099443	     -8.27618741	     55.88664804	    -55.88664804	     14.34435685	      0.00000000	      0.00000000
      4.40000000	     -2.87961284	      7.86563534	     87.93155122	     -0.06512881	      0.98806685	     -0.20493258	     21.69815207	    -11.97628884	     -2.55797042	     54.01047691	    -54.01047691	     12.62403563	      0.00000000	      0.00000000	     17.65117601	     -8.94272323	     -8.57231962	     53.08826990	    -53.08826990	     11.81339284	      0.00000000	      0.00000000
      4.40500000	     -2.58613857	      7.93468486	     87.76611391	     -0.06551087	      1.00144506	     -0.20870968	     19.79120695	    -11.71813884	     -3.02836837	     50.80920904	    -50.80920904	      9.65349510	      0.00000000	      0.00000000	     15.91528000	     -8.99986941	     -8.81681495	     50.11882245	    -50.11882245	      9.11310050	      0.00000000	      0.00000000
      4.41000000	     -2.28263693	      8.03020452	     87.59489290	     -0.06598266	      1.01528452	     -0.21266984	     17.75993575	    -11.42650467	     -3.48200534	     47.37467607	    -47.37467607	      6.35162007	      0.00000000	      0.00000000	     14.05335948	     -9.01302128	     -9.00099622	     46.93313226	    -46.93313226	      6.21768986	      0.00000000	      0.00000000
      4.41500000	     -1.96016269	      8.16966106	     87.42334720	     -0.06655366	      1.02953978	     -0.21685808	     15.57471883	    -11.09993618	     -3.93009179	     43.70242312	    -43.70242312	      2.79113870	      0.00000000	      0.00000000	     12.04048757	     -8.98348150	     -9.08972404	     43.50823615	    -43.50823615	      3.16218578	      0.00000000	      0.00000000
      4.42000000	     -1.60444502	      8.35874065	     87.26213654	     -0.06719946	      1.04414896	     -0.22124554	     13.21364767	    -10.70735821	     -4.34794225	     39.75826394	    -39.75826394	     -1.09686140	      0.00000000	      0.00000000	      9.86563428	     -8.92491868	     -9.01893693	     39.83730070	    -39.83730070	      0.02898156	      0.00000000	      0.00000000
      4.42500000	     -1.19761606	      8.59543611	     87.12733794	     -0.06786028	      1.05897345	     -0.22586094	     10.68128321	    -10.22876697	     -4.73470188	     35.56704558	    -35.56704558	     -5.20277186	      0.00000000	      0.00000000	      7.54105579	     -8.87582806	     -8.75894149	     35.94302107	    -35.94302107	     -3.09964911	      0.00000000	      0.00000000
      4.43000000	     -0.72804110	      8.86586189	     87.02370435	     -0.06854085	      1.07387496	     -0.23065505	      7.98728248	     -9.63677224	     -5.02898956	     31.11666425	    -31.11666425	     -9.45400714	      0.00000000	      0.00000000	      5.08213619	     -8.85317158	     -8.23572241	     31.83988392	    -31.83988392	     -6.09830451	      0.00000000	      0.00000000
      4.43500000	     -0.17795499	      9.17638240	     86.90822386	     -0.06910777	      1.08871875	     -0.23566096	      5.13789488	     -8.89785155	     -5.11541347	     26.42809443	    -26.42809443	    -13.73783673	      0.00000000	      0.00000000	      2.48059901	     -8.92497654	     -7.55191039	     27.58415716	    -27.58415716	     -8.82806453	      0.00000000	      0.00000000
      4.44000000	      0.43116932	      9.51859269	     86.90603713	     -0.06969722	      1.10329212	     -0.24081744	      2.13373268	     -8.05926194	     -5.08935191	     21.55721861	    -21.55721861	    -17.88292920	      0.00000000	      0.00000000	     -0.16621308	     -9.09003035	     -6.55616800	     23.29452566	    -23.29452566	    -11.26136124	      0.00000000	      0.00000000
      4.44500000	      1.10537492	      9.80874204	     86.86144788	     -0.07005853	      1.11730571	     -0.24607637	     -0.82565355	     -7.11310931	     -4.71799166	     16.65222204	    -16.65222204	    -21.82122677	      0.00000000	      0.00000000	     -2.75388973	     -9.41036488	     -5.56038371	     19.10603791	    -19.10603791	    -13.24843864	      0.00000000	      0.00000000
      4.45000000	      1.75730239	     10.15450328	     86.89048771	     -0.07034286	      1.13081493	     -0.25136074	     -3.80227992	     -6.20900986	     -4.26746891	     11.91740116	    -11.91740116	    -25.16761439	      0.00000000	      0.00000000	     -5.31395993	     -9.79475981	     -4.51289923	     15.12210992	    -15.12210992	    -14.90869635	      0.00000000	      0.00000000
